<?xml version="1.0" encoding="utf-8"?>
<!-- Generator: Adobe Illustrator 19.2.1, SVG Export Plug-In . SVG Version: 6.00 Build 0)  -->
<svg version="1.1" id="layer" xmlns="http://www.w3.org/2000/svg" xmlns:xlink="http://www.w3.org/1999/xlink" x="0px" y="0px"
	 viewBox="0 0 652 652" style="enable-background:new 0 0 652 652;" xml:space="preserve">
<style type="text/css">
	.st0{fill:#5C5F69;}
	.st1{fill:#003581;}
	.st2{fill:#FFFFFF;}
</style>
<g>
	<path class="st0" d="M154.8,335.2c0,3.9,1.7,5.2,7.6,5.2c5.9,0,8.6-1.8,12.5-9.8h1.4l-1.4,12.5h-36.8v-1.4c5.5-1.4,6.1-2.6,6.1-7.8
		v-30.8c0-4.3-1.1-5.5-6.1-6.8V295h22.8v1.4c-4.8,1.2-6.1,2.2-6.1,6.4V335.2z"/>
	<path class="st0" d="M191.8,336.5c0,3.1,1.6,4.8,5,5.3v1.4h-19.5v-1.4c4.2-0.8,5.2-2,5.2-5.9v-16.5c0-3.8-1.1-4.9-5.6-5.8v-1.4
		l13.5-1.1h1.4V336.5z M187.2,291.6c3,0,5.3,2.4,5.3,5.3c0,3-2.4,5.4-5.3,5.4c-3,0-5.4-2.5-5.4-5.4
		C181.7,294,184.2,291.6,187.2,291.6"/>
	<path class="st0" d="M212,318.8c3.1-2.9,4.8-3.7,7.2-3.7c5.5,0,9.2,5.3,9.2,12.8c0,10.1-4.6,14.2-11.5,14.2c-3.7,0-4.9-1.6-4.9-5.2
		V318.8z M212,291.6h-1.4l-12.6,0.9v1.4c2.9,0.5,4.7,2,4.7,4.6v44.6c4.7,0.9,9.3,1.2,15.1,1.2c15.1,0,20.9-7.9,20.9-17.4
		c0-9-6.4-16-14.8-16c-4.4,0-8.2,1.8-11.9,5.7V291.6z"/>
	<path class="st0" d="M252.4,323c0.3-5.9,2.8-9.9,6.6-9.9c3.8,0,6.6,4.1,6.9,9.9H252.4z M275.9,324.9c-1.1-8.6-7.5-14-16.3-14
		c-9.8,0-17.3,7.3-17.3,16.9c0,9.5,7.2,16.5,16.9,16.5c7.5,0,13.8-4.1,16.6-10.8h-1.4c-3,4.5-6.6,6.7-11.1,6.7
		c-5.8,0-11.5-5.3-11-15.5H275.9z"/>
	<path class="st0" d="M305.7,322.9c-2.7-2.6-4.9-4-7-4c-2.8,0-4.5,1.1-6.9,4.4V336c0,3.7,0.7,4.8,5.3,5.8v1.4h-19.7v-1.4
		c4.1-1,5.2-2.2,5.2-5.8v-16.4c0-4-1.7-5.8-5.7-6.1v-1.4l13.6-1.2h1.4v9.9h0.2c3-6.7,6.4-9.9,10.3-9.9c2.1,0,4,0.9,5.5,2.6
		L305.7,322.9z"/>
	<path class="st0" d="M358.1,312.1v1.4c3.9,0.8,4.9,3.3,2.1,9.9l-4.3,9.9l-6.6-13.6c-1.9-3.9-1.9-5.8,1.6-6.2v-1.4H333h-0.6h-9v-12
		h-1.6c-4.4,5.6-9.5,10.5-13.3,12.9v1.6h5.6v19.9c0,7.1,4.7,9.9,10.5,9.9c4.6,0,7.7-1.6,10-5.5l-1-0.9c-1.5,1.7-2.9,2.5-4.5,2.5
		c-4.4,0-5.7-3-5.7-8v-17.8h8.3c4.5,0,5.8,1.6,7.8,5.8l11.3,23.9c-3.8,10.2-7.1,14.3-12.8,14.3c-1.2,0-2.2-0.1-4.2-0.7l-1.9,9.4
		c1.2,0.2,1.8,0.2,2.6,0.2c6.4,0,10-2.7,13.2-10.3l15.6-35.7c2.6-5.7,3.5-6.9,7.5-8v-1.4H358.1z"/>
	<path class="st0" d="M447.9,334.5c0.6,4.2,2.6,6.6,7.3,7.5v1.4h-23.8V342c5.3-1.3,6.2-4.4,5.3-10.6l-4-27.5h-0.2L417,343.4h-1.7
		l-15.5-39.5h-0.2l-4.2,28.3c-0.8,5.6,0.2,9.4,5.7,9.8v1.4h-17.4V342c5.2-0.2,7.4-3.2,8.5-10.6L397,300c-1.9-2-4.5-3.2-7-3.3v-1.4
		h17.3l12.6,31.7l12.7-31.7H449v1.4c-4.9,0.9-6.1,3.4-5.4,7.8L447.9,334.5z"/>
	<path class="st0" d="M459,319.2c0-3.5-1.2-4.7-4.9-5.3v-1.4l12.8-1.2h1.4V334c0,3.7,2.4,5.4,5.8,5.4c3.1,0,5-1.3,7.7-5.6v-15.5
		c0-2.5-1.6-4-4.9-4.6v-1.4l12.8-1.2h1.4v24.7c0,4.1,0.8,5.1,4.9,6.2v1.4l-14.2,1.2v-7.6h-0.2c-3.5,5.3-7.3,7.6-12.3,7.6
		c-6.4,0-10.3-3.5-10.3-9.5V319.2z"/>
	<path class="st0" d="M503.2,314.9h-5.6v-1.6c3.9-2.4,9-7.3,13.3-12.9h1.6v12h10.2v2.5h-10.2v17.9c0,5,1.3,8,5.7,8
		c1.6,0,3-0.8,4.5-2.5l1,0.9c-2.3,3.9-5.3,5.5-9.9,5.5c-5.8,0-10.5-2.8-10.5-9.9V314.9z"/>
	<path class="st0" d="M528.7,319.2c0-3.5-1.2-4.7-4.9-5.3v-1.4l12.7-1.2h1.4V334c0,3.7,2.4,5.4,5.7,5.4c3.1,0,5-1.3,7.7-5.6v-15.5
		c0-2.5-1.6-4-4.8-4.6v-1.4l12.8-1.2h1.4v24.7c0,4.1,0.8,5.1,4.9,6.2v1.4l-14.2,1.2v-7.6h-0.2c-3.5,5.3-7.3,7.6-12.3,7.6
		c-6.4,0-10.3-3.5-10.3-9.5V319.2z"/>
	<path class="st0" d="M586.9,338.1c-2.1,2.1-3.9,3.2-5.8,3.2c-2.5,0-4.3-2.2-4.3-5.6c0-4.2,2.4-6.1,10.1-9.4V338.1z M596.3,322.8
		c0-8.6-7-11.6-13.7-11.6c-7.2,0-12.3,3.9-13.9,10.5h1.2c2-3.5,5.1-5.2,9.3-5.2c5.6,0,7.7,2.6,7.7,8.1c-7.6,2.8-19.9,3.5-19.9,11.8
		c0,4.5,4.2,8.1,9.3,8.1c3.8,0,6.7-0.9,9.8-3.7l0.7-0.7c1.6,3.1,3.7,4.3,7.5,4.3c4.5,0,7.2-2.1,7.6-6h-1.3c-0.3,1.9-1.2,2.9-2.5,2.9
		c-1.4,0-1.9-1.2-1.9-4.1V322.8z"/>
</g>
<g>
	<path class="st0" d="M608.4,300.4c0-4.4-1.4-5.9-5.8-6.2v-1.4l13.7-0.9h1.4v43.9c0,4.1,0.9,5.1,5.5,6.2v1.4h-20.6V342
		c4.5-0.7,5.8-2.2,5.8-6.2V300.4z"/>
	<path class="st1" d="M127,310.4c-0.4-0.5-1.3-0.1-1.3-0.1l-14.5,5.4c-1.1-2.7-2.4-5.3-3.9-7.7l4.7-12.8c0,0,0.6-1.3,0-1.6
		c-0.5-0.3-1.4,0.5-1.4,0.5l-8.5,7c-3.3-3.6-7.2-6.4-11.7-8.4c-1.7-0.7-3.4-1.4-5.2-1.9l-2.6-10.1c0,0-0.2-1-0.9-1
		c-0.7,0-0.9,1-0.9,1l-1.7,8.9c-1.8-0.2-3.7-0.4-5.7-0.4c-6.3,0-12,1.2-16.9,3.4c-2.1,0.9-4.1,2.1-6,3.4c-0.3,0.2-0.6,0.4-0.9,0.7
		c-1.8-4.5-3.1-8.2-3.4-9.3c1-0.9,3-4.1,3.5-6.3c0.7-3,0.5-4.5-0.3-6.8c-0.5-1.7-1.6-3.3-1.5-4.3c0.1-0.8,0.5-1.4,0.8-1.7
		c-0.2-1.1-0.9-1.6-1.8-1.7c-0.8-0.1-1.4,0.1-2.1,0.2c-0.2-0.3-0.5-0.3-0.3-1.4c0.4-1.7,3.8-2.6,6.5-3.6c3.5-1.3,5.4-3.8,5.5-7.9
		c0.1-2.9-1.5-5.1-3.6-6c-0.4,1.2-2.1,2.8-3.3,3.4c-1.2,0.6-2.8,0.9-3.9,0.6c0.3-2.1-0.7-4-2.3-4.7c-0.5,0.9-2.4,2.2-5.2,2.1
		c-2.8-0.1-3-0.8-7-0.7c-5.7,0-10.3,3.4-10.9,8.4c-0.4,3.3,0.9,6,1.8,7.4c-0.7,0.5-2.4,2.1-2.7,2.6c-0.4-0.5-1.5-1.1-2.9-0.2
		c0.3,0.7,0.3,1.6,0.1,2.4c-0.2,0.8-2.3,4.8-2.5,8.1c-0.4,5.5,2.8,9.2,5.4,10.3c-0.6,0.9-0.7,1.8-0.3,2.6c0.3,0.5,0.8,1,1.9,1
		c-0.6,0.7-0.9,1.8-0.5,2.8c0.5,1.2,1.8,2.9,3,2.9c-0.1,1,0.4,3.4,0.7,4.3c-0.4,0.8-0.8,1.3-0.8,2.8c0.1,1.5,1,2.7,2.2,2.9
		c0.3,0.7,0.5,1.5,0.9,2c0.4,0.5,0.8,1.1,1.7,1.6c0.9,0.6,1.9,1.1,3.1,1.1c1.2,0,2.2,0.1,2.7-0.1c0,0.3,0.1,3.5,0.3,6.9
		c-3,8.3-4.4,17.8-4.4,28.1c0,18.4,5.2,34.8,15.3,45.4c0,0,0.6,0.7,2.2,1.8c0,0,3.1-5.4,7.9-11.5c1.2-1.5,2.6-3,4.1-4.5
		c2.3-2,4.6-3.9,6.8-5.5c6.2-4.2,13.3-7.4,19.9-8.8c-7.6,3.9-11.8,6-19,12.1c-4.5,3.9-11.7,10.7-16.6,20c1,0.8,2.4,1.6,4,1.8
		c1-1.2,6.4-11,14.5-18.8c16.6-15.5,36-19.1,46.3-18.9c0.6-4.2,0.9-8.6,0.9-13.1c0-7.4-0.8-14.4-2.3-20.9l12.2-13.6
		C126.5,311.8,127.4,310.9,127,310.4"/>
</g>
<g>
	<path class="st2" d="M36.4,304.3c-0.7-0.4-2.7-1.4-4.2-1.3c-1.6,0.1-2.9,0.4-4.2,1.2c-0.5-0.4-0.7-1.1-0.4-1.9c0.3-0.8,0.8-1,0.8-1
		l-0.4-7.7c0,0,2.2-1.6,2.8-1.7c0.6-0.2,0.9-0.6,0.9-1.2c1,0.7,2.4,2.1,3.1,3.2c0.7,1,1.1,2.1,1.2,3.4c0.1,1.2,0.1,2.7-0.2,4.2
		c0.5,0.4,0.9,0.8,1,1.4C36.8,303.6,36.6,303.8,36.4,304.3"/>
	<path class="st2" d="M106.8,328.4c-0.1-1.5-1.8-5.6-2.9-6.5l18.3-8.1L106.8,328.4z"/>
	<path class="st2" d="M56.5,298L72,312.1c-1.5,0.8-3.7,3.1-4.4,5L56.5,298z"/>
	<path class="st2" d="M65.6,325.9c-0.5,0.8-0.7,1.3-0.9,2.3c-0.2,1,0,1.6,0.1,2.4l-4.8-3.3c0.1-1.1-0.2-2.9-0.3-3.9
		c0-0.1,0-0.3-0.1-0.4L65.6,325.9z"/>
	<path class="st2" d="M39.3,327.3c-0.3-0.5-1.7-29.2-1.7-30.2l1.5-1.1v-0.3c-1.1-0.1-2.4-0.5-2.8-1.1l-0.4-8.8
		c-1.5-0.1-3.1-0.6-3.7-1.2c-0.7-0.7-1.3-1.6-0.5-3.2c0.8,0.5,3,1.2,4.9,1.2c0.4,0,1.3,0.9,1.8,1.1c0.6,0.2,1.5,0.7,2,0.9
		c0.4,0.2,0.7,1.1,0.8,1.5c0.1,0.4,14.3,37.2,14.6,37.6c0.2,0.4,1.1,6.6,1.1,7.1c0.1,0.5,2.2,5.4,2.6,5.9c-1.9-0.1-5,1-7.5,3.5
		c-2.5,2.4-4.7,7.7-5.2,10.2C46.6,349,39.6,327.8,39.3,327.3"/>
	<path class="st2" d="M57.4,362.5c-0.6,5.7-2,10.6-4.1,14.1c-1.3,2.3-5.1,6.9-6.4,8.6c1.4-2.8,2.5-9.7,2.4-15
		c-0.1-3.4-1.1-11.1-0.2-16.1c1-5.4,2.5-8.4,6.1-11.8c1.8-1.7,5.6-3.9,11-2.4l4.4,8.2c-2.3-0.4-5.4,0-7.5,1.5
		C59.3,352.6,58,356.7,57.4,362.5"/>
	<path class="st2" d="M57.8,373.7c1.1-2.4,2.5-9.2,2.8-11.5c0.5-2.9,1-7.2,4.5-10.1c1.7-1.4,4.5-1.6,5.6-1.3l4.9,10.1
		c0.4,1.1,1.9,1.4,2.9,1.4C73.9,363.8,62.2,369.3,57.8,373.7"/>
	<path class="st2" d="M99.8,341.6c-0.8,1.2-0.5,2.4-0.1,3.3c0.5,0.9,3.1,5.8,3.1,5.8c0.8,2.2,1.5,3.3,2.2,4.7c1.4,0,3,0,4.6,0
		c-1.7-3.9-5.7-11.3-5.7-11.3l-0.3-6C102.6,338.6,100.6,340.3,99.8,341.6"/>
	<path class="st2" d="M78.7,309.6c1.9-0.4,6.4,0.1,7.8,0.8L82,285L78.7,309.6z"/>
	<path class="st2" d="M32.1,279c4,0,5.9,1.7,6.9,2.6c0.1-1.4-0.1-2.6-1.4-3.6c-1-0.8-2.9-1.6-5.7-1.6c-1.9,0-3.8,0.6-5,1.6
		c-1.1,0.9-1.3,1.9-1,3.5C26.2,280.3,28.8,279,32.1,279"/>
	<path class="st2" d="M24.9,258c-0.1,1.5,0.3,3.1,1,4.1c0.4,0.5,1.4,1.6,2.1,1.5c1-0.1,1.9-2,4.3-1.9c1.5,0.1,2.5,2.2,3.8,2.3
		c1,0.1,1.5-0.9,2.5-1c0.9-0.1,1.2,0.3,1.7,0.9c0.4-0.8,0.9-1.4,2.2-2.4c1.6-1.2,7-2.3,9.3-4.4c1.1-1,1.4-2.9,1-4.2
		c-0.9,1.2-3.3,2.5-5.6,2.6c-1.2,0.1-4-0.5-5-1c0.5-0.9,0.7-1.8,0.3-2.8c-0.8,0.6-4.1,0.9-5.4,0.9c-1.3,0-3.8-0.5-5.8-0.4
		C27.1,252.4,25.1,255.5,24.9,258"/>
	<path class="st2" d="M32.3,271.4c9.3,0.2,13.5,4.5,13.6,8c0.5-1.1,0.4-2.1,0.3-3.2c0-0.9-1.5-3.6-1.5-4.5c-0.1-0.9,0.2-1.5,0.4-2.3
		c-0.6,0.1-2.7,0.9-3.5,0.2c-0.9-0.8-0.3-2.7-1.5-3.1c-1.2-0.5-3.2,1-4.4,0.8c-1.2-0.2-2.3-1.9-3.6-1.9c-1.3,0-2,1.6-3.5,1.9
		c-1.2,0.3-2.7-0.5-3.4-0.4c-0.8,0.1-1.3,0.7-1.6,1.5c-0.4,0.8-0.6,1.1-1.6,1.3c-0.7,0.2-1.8-0.5-2.4-0.4c0.4,0.4,0.6,2.1,0.2,3.1
		c-0.5,1.2-1.5,2.5-1.6,4.1c-0.1,1.4,0.3,2,0.7,3C18.6,274.5,24.2,271.2,32.3,271.4"/>
	<path class="st2" d="M26.5,289.2c-0.6,0.1-2,1.2-2.7,2.3c0.2,0.7,1,2.4,1.7,2.8c0.2-0.8,1-2.1,1.4-2.3c0.6-0.4,1.2-0.7,1.6-0.9
		c0.5-0.2,0.6-0.5,0.6-1c0-0.5-0.1-0.8-0.3-1.3c0.5-0.1,1.3,0,1.6-0.4c0.3-0.4,0.4-0.9,0.4-1.5c0-0.5-0.2-0.7-0.8-0.7
		c-0.5-0.1-2.1-0.1-2.8,0c0,0,1.2-0.6,1.5-0.8c0.4-0.2,0.5-0.5,0.5-0.8c0.1-0.3,0.1-1-0.1-1.8c-1.8,0.1-4.9,1.6-5.7,2.4l0.6,1.6
		l-1.2-0.1c-0.2,0.8-0.1,2,0.3,2.8C24.5,289.2,25.7,289.2,26.5,289.2"/>
	<path class="st2" d="M102.7,326.2c-0.2-1.1-3.1-4.6-8-8.3c-3.8-2.9-9.4-5.8-14-5.7c-7.8,0-11,5.4-11.6,8.2
		c-0.4,1.7-0.3,3.5,0.1,4.5c-1.2,1.1-1.7,1.9-1.9,3.1c-0.2,0.9,0,2.1,0.8,2.9c-0.1-1.1,0.7-2.5,1.3-3.4c0.7-1,1.9-1.4,3-2l0.2,2.1
		c-1,0.6-2.3,1.8-2.3,2.5l0.1,3.5l2.7-1.6l0.5,1.1l-1,6.2L74,339l2.7,1.1l-2.7,2.2v0.9c0,0,0.4-0.5,1.3-0.5c0.9,0,3.4,1.1,3.4,1.1
		l-0.1,0.5h-1.1H74c-0.2,0.6,0.4,1.1,0.7,1.4c0.6-0.2,1.3-0.5,1.6-0.5c0.4,0,1.2,0.2,1.9,0.3l-0.8,1.1c0,0-0.4,0.3-1.2,0.2
		c-0.4-0.1-0.9,0.5-0.9,1c0,0.5,0.3,1.9,0.3,1.9c0.4,2,2.5,1.6,2.7,1.6c1.3-0.1,5.5-1.6,5.5-1.6l-4,5.7l1.8,6.1
		c2.7-1.1,10.7-3.9,19.3-5.4c-0.9-1.6-1.1-2.2-2.3-4.5l-4.4-10.2l0.6-1.5c1,0.4,2.5-0.3,3.5-1.1c1-0.8,2.1-2.2,2.6-3.1
		c-0.6-0.4-1.1-0.3-1.7,0.1c-0.5,0.4-0.9,1-1.7,0.7c-0.8-0.3-0.4-1.2-0.3-2c0.1-0.8-0.9-0.8-1.6-0.2c-0.7,0.6-2.2,0.4-3.2-0.6
		c-1-1-5.7-4.9-7.3-5.8c-2.4-1.4-5.7-1.7-8.1-1.3c-1.4,0.3-2.4,0.9-2.9,0.6l-1.8-2.7l0.3-0.2c0.6,0.3,1.2,0.8,2,0.5
		c0.8-0.3,3.4-0.8,5.7-0.9c3.5-0.1,7.8,1.2,9.7,2c0.1,2.3,4.7,5.2,6.8,5.5c1.8,0.2,2.8-0.3,3.9-0.9l-4.5-4l2.4-3
		c0,0,3.8,3.6,4.3,4.3C103,327.3,102.8,326.7,102.7,326.2 M75.6,330.8c0,0,1.9-1.1,3.8-1.5c2.7-0.6,5.7,1,7.8,2.7l-0.4,0.6l-3,0.7
		c-0.6-0.5-1.7-0.8-2.9-0.7c-1.1,0-1.9,0.4-1.9,0.4l0.6,1l-1.4,0.4c-0.6-0.8-1.6-1.8-2.5-2V330.8z M71,323.8
		c-0.8-2.7,1.3-5.3,2.3-6.3l1.5,3.4C73.6,321.6,71.9,322.9,71,323.8 M85,320.8c-1.4-1-6.1-0.8-8.1-0.4l-1.4-4.1
		c1.1-0.8,3.1-1.3,4.9-1.3c1.9,0,3.9,0.4,5.3,1.2L85,320.8z M94.2,324.9c-1.9-1.3-5.8-3.1-6.9-3.5l1.7-4.3c1.4,0.7,6.6,3.9,7.4,4.7
		L94.2,324.9z"/>
	<path class="st2" d="M93.6,313.4c1.7,0.6,5.4,3.7,6.3,4.4l9.4-20L93.6,313.4z"/>
	<path class="st0" d="M632.6,332.4c2.9,0,5.4,2.2,5.4,5.6c0,3.3-2.5,5.6-5.4,5.6c-2.9,0-5.4-2.2-5.4-5.6
		C627.2,334.7,629.7,332.4,632.6,332.4 M632.6,342.3c2.3,0,4.1-1.8,4.1-4.3c0-2.6-1.9-4.3-4.1-4.3c-2.3,0-4.1,1.8-4.1,4.3
		C628.5,340.5,630.3,342.3,632.6,342.3 M630.5,335.1h2.3c1.5,0,2.3,0.5,2.3,1.8c0,1.1-0.7,1.5-1.5,1.6l1.6,2.6h-1.2l-1.5-2.6h-0.8
		v2.6h-1.1V335.1z M631.6,337.6h1c0.7,0,1.3-0.1,1.3-0.9c0-0.7-0.7-0.8-1.3-0.8h-1.1V337.6z"/>
	<rect x="139" y="360.4" class="st0" width="188.1" height="2"/>
	<rect x="352.7" y="360.4" class="st0" width="271.2" height="2"/>
	<rect x="247.3" y="378.9" class="st0" width="4.9" height="26.2"/>
	<polygon class="st0" points="266.7,378.9 271.2,378.9 282.2,397.5 282.3,397.5 282.3,378.9 286.8,378.9 286.8,405 282.2,405 
		271.3,386.4 271.2,386.4 271.2,405 266.7,405 	"/>
	<path class="st0" d="M302.1,397.2c1.8,2.7,4.7,4,7.9,4c2.4,0,5.5-0.8,5.5-3.3c0-2.1-1.9-2.6-5.4-3.4l-2.9-0.7
		c-4.2-1-7.9-2.5-7.9-7.3c0-5.5,5.3-8.2,10.1-8.2c4.5,0,8.2,1.6,10.9,5.3l-4.1,3.1c-1.2-2.4-3.7-3.8-6.9-3.8c-2.8,0-5,1.1-5,2.9
		c0,2.2,2.5,2.7,5.4,3.3l3.2,0.7c3.9,0.8,7.6,2.4,7.6,7.4c0,6.4-6,8.6-11.5,8.6c-4.3,0-8.8-1.9-11.3-5.5L302.1,397.2z"/>
	<path class="st0" d="M354.5,397c0,5.3-4.2,8.7-10.5,8.7c-6.3,0-10.5-3.4-10.5-8.7v-18.1h4.9v16.8c0,3.2,1.4,5.2,5.6,5.2
		c4.3,0,5.6-2,5.6-5.2v-16.8h4.9V397z"/>
	<path class="st0" d="M368.5,378.9h10.9c5.5,0,8.8,3.3,8.8,7.9c0,5.9-3.9,7.2-5.2,7.7l5.8,10.5h-5.7l-5.1-9.6h-4.7v9.6h-4.9V378.9z
		 M373.5,391.1h5.4c2.5,0,4.3-1.5,4.3-3.9c0-2.4-1.6-3.9-5-3.9h-4.6V391.1z"/>
	<path class="st0" d="M407.3,378.9h5.7l8.7,26.2h-5.1l-1.5-5.1h-9.9l-1.5,5.1h-5.1L407.3,378.9z M410.2,383.7L410.2,383.7l-3.7,12
		h7.3L410.2,383.7z"/>
	<polygon class="st0" points="432.9,378.9 437.4,378.9 448.4,397.5 448.5,397.5 448.5,378.9 452.9,378.9 452.9,405 448.4,405 
		437.4,386.4 437.4,386.4 437.4,405 432.9,405 	"/>
	<path class="st0" d="M483.8,387.7c-0.4-2.9-2.8-4.9-5.8-4.9c-5.2,0-7.4,4.6-7.4,9.2c0,4.6,2.2,9.2,7.4,9.2c3.4,0,5.4-2.2,6.3-5.3
		l4.5,2.1c-2.1,5.3-5.6,7.8-10.8,7.8c-8.4,0-12.5-6.4-12.5-13.7c0-7.4,4.7-13.7,12.5-13.7c5.2,0,9.3,2.8,10.5,8.2L483.8,387.7z"/>
	<polygon class="st0" points="499.5,378.9 518,378.9 518,383.4 504.4,383.4 504.4,389.4 516.9,389.4 516.9,393.7 504.4,393.7 
		504.4,400.5 518.9,400.5 518.9,405 499.5,405 	"/>
</g>
</svg>
