<?xml version="1.0" encoding="UTF-8"?>
<svg width="417px" height="280px" viewBox="0 0 417 280" version="1.1" xmlns="http://www.w3.org/2000/svg" xmlns:xlink="http://www.w3.org/1999/xlink">
    <!-- Generator: Sketch 60.1 (88133) - https://sketch.com -->
    <title>Illustrations/Auto Coverages/Towing</title>
    <desc>Created with Sketch.</desc>
    <defs>
        <rect id="path-1" x="0" y="0" width="418" height="280"></rect>
        <linearGradient x1="0%" y1="50%" x2="100%" y2="50%" id="linearGradient-3">
            <stop stop-color="#FFFFFF" offset="0%"></stop>
            <stop stop-color="#FFFFFF" stop-opacity="0.82" offset="18%"></stop>
            <stop stop-color="#FFFFFF" stop-opacity="0" offset="100%"></stop>
        </linearGradient>
        <linearGradient x1="8.6625143e-13%" y1="50%" x2="100%" y2="50%" id="linearGradient-4">
            <stop stop-color="#FFFFFF" offset="0%"></stop>
            <stop stop-color="#FFFFFF" stop-opacity="0.82" offset="18%"></stop>
            <stop stop-color="#FFFFFF" stop-opacity="0" offset="100%"></stop>
        </linearGradient>
    </defs>
    <g id="Symbols" stroke="none" stroke-width="1" fill="none" fill-rule="evenodd">
        <g id="Dotcom-/-Claim" transform="translate(-810.000000, -21.000000)">
            <g id="Claim" transform="translate(0.000000, 21.000000)">
                <g id="Illustration" transform="translate(809.000000, 0.000000)">
                    <g id="Illustrations/Auto-Coverages/Towing" transform="translate(209.000000, 140.000000) scale(-1, 1) translate(-209.000000, -140.000000) ">
                        <mask id="mask-2" fill="white">
                            <use xlink:href="#path-1"></use>
                        </mask>
                        <g id="Background"></g>
                        <g id="Artboard-26-copy-3" stroke-width="1" fill-rule="evenodd" mask="url(#mask-2)">
                            <g id="house" fill-rule="nonzero">
                                <path d="M168.745265,50.3948998 L168.745265,134.889617 C175.82817,124.711714 188.531033,120.083332 200.490134,123.32314 C212.449235,126.562949 221.088588,136.973095 222.080158,149.338434 L222.176936,149.338434 L222.176936,136.281967 L257.719949,136.281967 L257.719949,124.495446 L259.380457,124.495446 L259.380457,98.9435337 L284.339006,98.9435337 L284.339006,124.495446 L317.330135,124.495446 L347.153055,161.068852 L347.153055,173.987614 L374.887607,173.987614 L374.887607,199.554827 L404.710527,199.554827 L404.710527,250.928962 L10.3552514,250.928962 L10.3552514,149.338434 L70.0010921,149.338434 L70.0010921,67.8324226 L119.373179,67.8324226 L119.373179,50.3897996 L125.607723,50.3897996" id="Path" fill="#F2F2F2"></path>
                                <path d="M126.947335,31.9832423 C128.172654,31.9748434 129.265136,31.2086634 129.691786,30.0585027 C130.118435,28.908342 129.790358,27.613842 128.867615,26.8065574 C125.71969,23.991603 121.66763,22.400891 117.447805,22.3234973 C114.062275,13.9855293 104.980928,9.50362544 96.3145348,11.8936248 C92.2220276,4.74470265 84.6584389,0.296428394 76.4295856,0.198950331 C68.2007322,0.101472267 60.5341603,4.36933177 56.2738897,11.4193078 C47.7249148,10.3996751 39.3137719,14.1975433 34.417331,21.2881603 C32.9655421,23.3734917 32.7937528,26.0946174 33.9717321,28.3464011 C35.1497114,30.5981849 37.481572,32.0061755 40.0202707,31.9985737 L111.39663,31.9985737" id="Path" stroke="#E6E6E6" stroke-width="2" fill="#FFFFFF"></path>
                                <rect id="Rectangle" fill="url(#linearGradient-3)" x="0.275053407" y="85.0251366" width="69.27271" height="194.826958"></rect>
                                <rect id="Rectangle" fill="url(#linearGradient-4)" transform="translate(382.960934, 182.433515) rotate(180.000000) translate(-382.960934, -182.433515) " x="349.536851" y="85.0200364" width="66.8481651" height="194.826958"></rect>
                                <path d="M323.559585,81.0928962 C322.759482,81.0898183 322.044663,80.591593 321.763975,79.8413637 C321.483286,79.0911345 321.695231,78.2452729 322.296377,77.7165756 C324.350012,75.8825225 326.991863,74.845763 329.743193,74.7941712 C331.945275,69.3665984 337.853519,66.4458965 343.495863,67.9956284 C346.162584,63.3316822 351.094989,60.4288896 356.461873,60.3649403 C361.828758,60.300991 366.828753,63.0854337 369.605563,67.6845173 C370.200746,67.6153546 370.799329,67.5795974 371.398503,67.5774135 C376.373163,67.5755561 381.031007,70.0219004 383.857404,74.1209472 C384.794174,75.4748485 384.905911,77.236601 384.147718,78.6982828 C383.389524,80.1599645 381.885868,81.0816178 380.240961,81.0928962 L333.695812,81.0928962" id="Path" stroke="#E6E6E6" stroke-width="1.3" fill="#FFFFFF"></path>
                            </g>
                            <g id="Layer_3" transform="translate(37.692504, 103.023679)">
                                <rect id="Rectangle" fill="#DD4517" fill-rule="nonzero" x="71.0707443" y="14.9996357" width="11.2873769" height="7.57887067" rx="3.78943534"></rect>
                                <rect id="Rectangle" fill="#1A1446" fill-rule="nonzero" x="71.0707443" y="20.5639344" width="11.2873769" height="7.57887067"></rect>
                                <rect id="Rectangle" fill="#09062D" fill-rule="nonzero" x="174.720037" y="104.283424" width="77.8503014" height="14.1836066"></rect>
                                <line x1="28.305033" y1="75.1970856" x2="23.9653015" y2="65.5985428" id="Path" stroke="#343741" stroke-width="2.67" stroke-linecap="round"></line>
                                <rect id="Rectangle" fill="#09062D" fill-rule="nonzero" x="89.2395499" y="92.0021858" width="259.905095" height="20.2528233"></rect>
                                <line x1="25.6971192" y1="23.0375228" x2="25.6971192" y2="28.4794171" id="Path" stroke="#FFD000" stroke-width="5.33" stroke-linecap="round"></line>
                                <path d="M4.70137583,81.2408015 C4.65524036,80.2079 4.68759293,79.1729812 4.79815388,78.1449909 C5.17264791,74.5272302 7.82466842,71.5591243 11.3739677,70.7854281 C16.5948889,69.6480874 20.5831633,68.9289617 20.5831633,68.9289617 C20.5831633,68.9289617 23.2114514,68.5311475 26.05367,74.5952641 C28.5648057,79.9555556 4.70137583,81.2408015 4.70137583,81.2408015 Z" id="Path" fill="#343741" fill-rule="nonzero"></path>
                                <polygon id="Rectangle" fill="#343741" fill-rule="nonzero" transform="translate(24.901164, 73.354885) rotate(-21.350000) translate(-24.901164, -73.354885) " points="22.5583061 72.0071476 27.2452061 72.0050885 27.2440221 74.7026221 22.5571222 74.7046811"></polygon>
                                <polygon id="Path" fill="#09062D" fill-rule="nonzero" points="122.312175 105.364663 45.0272615 105.364663 59.1364825 123.358106 108.202954 123.358106"></polygon>
                                <path d="M46.7896407,73.2692168 L48.5927686,65.5577413 C48.8378186,64.4918561 48.5813863,63.3723098 47.896945,62.5198768 C47.2125037,61.6674439 46.1755858,61.1761956 45.0832909,61.1868852 L44.8235182,61.1868852 C43.7484224,61.2031829 42.7771216,61.8330686 42.3225696,62.8087432 L37.6772232,72.7948998 L46.7896407,73.2692168 Z" id="Path" fill="#343741" fill-rule="nonzero"></path>
                                <path d="M45.9288254,60.5289617 L46.1987852,60.5289617 C47.4317691,60.5108366 48.452967,59.5652792 48.5673007,58.3358834 L48.7812311,56 C48.8433205,55.3195632 48.6143251,54.6446784 48.1511129,54.1429441 C47.6879006,53.6412099 47.0339253,53.3596936 46.3515927,53.368306 L46.0816329,53.368306 C44.8485629,53.3814897 43.8253883,54.326674 43.7131174,55.5562842 L43.499187,57.8972678 C43.4370976,58.5777046 43.666093,59.2525893 44.1293053,59.7543236 C44.5925175,60.2560579 45.2464928,60.5375742 45.9288254,60.5289617 L45.9288254,60.5289617 Z" id="Path" fill="#343741" fill-rule="nonzero"></path>
                                <rect id="Rectangle" fill="#343741" fill-rule="nonzero" x="46.8762316" y="58.7132969" width="1" height="4.35045537"></rect>
                                <path d="M4.70137583,81.2408015 C3.15075608,82.069429 2.17448425,83.6784548 2.15458502,85.4382514 L2.15458502,110.123133 L8.94432932,110.123133 L8.94432932,84.1530055 L4.70137583,81.2408015 Z" id="Path" fill="#06748C" fill-rule="nonzero"></path>
                                <path d="M86.6520104,24.6287796 L29.5682413,24.6287796 C22.0857699,24.6287796 16.1415601,27.4440801 11.5828046,33.0491803 C11.9770188,32.9710334 12.3779307,32.9317443 12.7797963,32.9318761 L13.1261598,32.9318761 L13.3095288,32.9318761 L13.6711731,32.982878 L13.8494484,33.0185792 C13.9716944,33.0491803 14.0888467,33.0848816 14.2059991,33.1256831 L14.3791809,33.1919854 C15.1737796,33.5285974 15.8206645,34.2120219 15.8206645,35.6247723 L13.0803176,75.6204007 L13.0803176,75.6204007 L13.0548497,75.992714 C12.9427909,77.6247723 11.796735,78.7417122 10.1566017,79.3129326 L9.59121418,79.5118397 L9.59121418,79.5118397 C6.79993146,80.4859745 5.83215095,80.8582878 5.37882219,81.0418944 L5.37882219,81.0418944 L5.32279279,81.0418944 L5.32279279,81.0418944 L5.27695055,81.0418944 L5.27695055,81.0418944 L5.24129548,81.0418944 L5.21582757,81.0418944 L5.21582757,81.0418944 L5.21582757,81.0418944 L5.21582757,81.0418944 L5.21582757,81.0418944 L5.00189715,81.0418944 L4.96114849,81.0418944 L4.96114849,81.0418944 L4.83890253,81.0418944 L4.83890253,109.796721 C4.84171373,117.724714 11.259602,124.150919 19.1773348,124.153734 L51.9494389,124.153734 C53.4424106,105.877603 68.6900322,91.8059683 87.0034676,91.8032787 L94.2057921,91.8032787 L94.2057921,32.0546448 C94.2057921,30.0610902 93.4059309,28.15112 91.9852257,26.7544731 C90.5645205,25.3578262 88.6426427,24.5918112 86.6520104,24.6287796 L86.6520104,24.6287796 Z M53.482607,65.3894353 C53.478381,68.2904606 51.4662492,70.80094 48.6386108,71.4331512 C48.2464051,71.5249545 36.8928116,72.0757741 36.4904187,72.0910747 C33.2203393,72.1930783 30.7346715,73.947541 19.1722412,77.364663 C18.5028251,77.5040198 17.806891,77.320839 17.2924551,76.8698737 C16.7780192,76.4189085 16.5046804,75.7524044 16.5541402,75.0695811 L19.0550888,38.5216758 C19.2743023,35.3007582 21.9431883,32.7976622 25.1673868,32.7890372 L47.3193732,32.7890372 C48.9520881,32.7836487 50.5197877,33.4292851 51.6762077,34.5833757 C52.8326276,35.7374664 53.482607,37.3050511 53.482607,38.9398907 L53.482607,65.3894353 Z" id="Shape" fill="#06748C" fill-rule="nonzero"></path>
                                <polygon id="Path" fill="#09062D" fill-rule="nonzero" points="307.581019 105.364663 230.296106 105.364663 244.405327 123.358106 293.471798 123.358106"></polygon>
                                <path d="" id="Path" fill="#78E1E1" fill-rule="nonzero"></path>
                                <path d="M2.15458502,96.1435337 L4.04939738,96.1435337 C4.94115244,96.1435337 5.66406276,96.8673808 5.66406276,97.7602914 L5.66406276,98.6630237 C5.66406276,99.6348034 4.87729917,100.422587 3.9067771,100.422587 L2.15458502,100.422587 L2.15458502,96.1435337 L2.15458502,96.1435337 Z" id="Path" fill="#FFD000" fill-rule="nonzero"></path>
                                <path d="" id="Path" fill="#78E1E1" fill-rule="nonzero"></path>
                                <ellipse id="Oval" fill="#1A1446" fill-rule="nonzero" cx="268.936016" cy="123.358106" rx="24.5357826" ry="24.5675774"></ellipse>
                                <ellipse id="Oval" fill="#F5F5F5" fill-rule="nonzero" cx="268.936016" cy="123.358106" rx="13.8341677" ry="13.8520947"></ellipse>
                                <path d="M268.941109,110.378142 C276.100468,110.378142 281.904274,116.18947 281.904274,123.358106 C281.904274,130.526742 276.100468,136.338069 268.941109,136.338069 C261.781751,136.338069 255.977944,130.526742 255.977944,123.358106 C255.986364,116.192965 261.785242,110.386573 268.941109,110.378142 L268.941109,110.378142 Z M268.941109,108.63898 C262.99296,108.63898 257.630599,112.226975 255.354817,117.729667 C253.079035,123.232359 254.338081,129.565911 258.544786,133.776609 C262.751491,137.987307 269.077282,139.24579 274.572065,136.965152 C280.066847,134.684515 283.64834,129.313963 283.64628,123.358106 C283.647631,119.452583 282.098775,115.706632 279.340728,112.945011 C276.58268,110.18339 272.841577,108.632526 268.941109,108.633879 L268.941109,108.63898 Z" id="Shape" fill="#BFC0BF" fill-rule="nonzero"></path>
                                <rect id="Rectangle" fill="#09062D" fill-rule="nonzero" x="296.98637" y="103.982514" width="2.714879" height="33.4469945"></rect>
                                <ellipse id="Oval" fill="#DD4517" fill-rule="nonzero" cx="116.816201" cy="98.3723133" rx="2.49585499" ry="2.49908925"></ellipse>
                                <ellipse id="Oval" fill="#DD4517" fill-rule="nonzero" cx="332.651628" cy="98.3723133" rx="2.49585499" ry="2.49908925"></ellipse>
                                <line x1="16.5643274" y1="74.6870674" x2="16.7782578" y2="115.672131" id="Path" stroke="#055769" stroke-width="0.53" stroke-linecap="round" stroke-linejoin="round"></line>
                                <path d="M68.4730177,94.2309654 L68.4730177,37.9504554 C68.4730177,35.0999015 66.1651778,32.789071 63.3183131,32.789071 L47.3193732,32.789071" id="Path" stroke="#055769" stroke-width="0.53" stroke-linejoin="round"></path>
                                <path d="M15.8206645,35.6502732 C15.8206645,32.4677596 12.4589006,32.8808743 11.5828046,33.0491803 C7.31947678,37.8484517 4.70137583,74.4881603 4.70137583,81.2408015 C5.41447726,81.0928962 4.70137583,81.2408015 10.1566017,79.3384335 C11.796735,78.7672131 12.9427909,77.6502732 13.0548497,76.0182149 L15.8206645,35.6502732 Z" id="Path" fill="#BFC0BF" fill-rule="nonzero" opacity="0.85"></path>
                                <path d="M19.0398081,38.5216758 L16.5388595,75.0695811 C16.4893996,75.7524044 16.7627384,76.4189085 17.2771743,76.8698737 C17.7916103,77.320839 18.4875444,77.5040198 19.1569605,77.364663 C30.7142971,73.947541 33.199965,72.1930783 36.4751379,72.0910747 C36.8775309,72.0910747 48.2311243,71.5249545 48.6233301,71.4331512 C51.4570403,70.8071092 53.4767846,68.2950563 53.482607,65.3894353 L53.482607,38.9398907 C53.482607,35.5428868 50.7323551,32.7890697 47.3397475,32.7890697 L25.1724803,32.7890697 C21.940432,32.7869486 19.2595653,35.2929278 19.0398081,38.5216758 L19.0398081,38.5216758 Z" id="Path" fill="#BFC0BF" fill-rule="nonzero" opacity="0.85"></path>
                                <rect id="Rectangle" fill="#055769" fill-rule="nonzero" transform="translate(63.364155, 77.408015) rotate(90.000000) translate(-63.364155, -77.408015) " x="59.4242646" y="76.7101939" width="7.87978142" height="1.39564136" rx="0.697820681"></rect>
                                <path d="M52.51992,119.624772 L52.9579681,120.012386 L82.8369178,113.178142 L92.2294823,98.1581056 L94.0682653,92.0021858 L79.2714107,92.0021858 C62.4524042,92.0021858 55.9886491,103.824408 52.51992,119.624772 Z" id="Path" fill="#09062D" fill-rule="nonzero"></path>
                                <rect id="Rectangle" fill="#09062D" fill-rule="nonzero" x="8.49100055" y="115.672131" width="62.5746501" height="8.67540984"></rect>
                                <ellipse id="Oval" fill="#1A1446" fill-rule="nonzero" cx="83.6722652" cy="123.358106" rx="24.5357826" ry="24.5675774"></ellipse>
                                <path d="M83.6722652,137.1949 C76.0318654,137.1949 69.8380975,130.993106 69.8380975,123.342805 C69.8380975,115.692504 76.0318654,109.49071 83.6722652,109.49071 C91.312665,109.49071 97.5064329,115.692504 97.5064329,123.342805 C97.4980113,130.98961 91.309174,137.186467 83.6722652,137.1949 L83.6722652,137.1949 Z" id="Path" fill="#F5F5F5" fill-rule="nonzero"></path>
                                <path d="M83.6722652,110.378142 C90.8316236,110.378142 96.6354304,116.18947 96.6354304,123.358106 C96.6354304,130.526742 90.8316236,136.338069 83.6722652,136.338069 C76.5129067,136.338069 70.7091,130.526742 70.7091,123.358106 C70.7175203,116.192965 76.5163975,110.386573 83.6722652,110.378142 L83.6722652,110.378142 Z M83.6722652,108.63898 C77.7236525,108.636917 72.3597287,112.223603 70.0823414,117.726132 C67.8049542,123.228661 69.0627424,129.56305 73.269047,133.774805 C77.4753516,137.98656 83.8015424,139.245978 89.2969499,136.96564 C94.7923574,134.685302 98.3744019,129.314427 98.3723426,123.358106 C98.3723426,115.228132 91.7917172,108.636696 83.6722652,108.63388 L83.6722652,108.63898 Z" id="Shape" fill="#BFC0BF" fill-rule="nonzero"></path>
                                <path d="M11.7152377,124.352641 L4.77777955,124.352641 C3.55984995,124.350203 2.53191223,123.445231 2.37360903,122.236066 L0.509358161,108.001457 C0.234304754,105.884882 1.46185792,103.921311 3.08671046,103.921311 L9.22956989,103.921311 C10.5844626,103.921311 11.6846762,105.374863 11.6846762,107.170128 L11.7152377,124.352641 Z" id="Path" fill="#1A1446" fill-rule="nonzero"></path>
                                <path d="M6.05626854,84.923133 L2.15458502,85.8156648 L2.15458502,93.4659381 L6.45356791,93.4659381 C7.45023526,93.4659381 8.25898187,92.6584285 8.26184092,91.6604736 L8.26184092,86.7030965 C8.26595067,86.1506214 8.01795677,85.6264779 7.58835344,85.2797669 C7.15875011,84.9330559 6.5945573,84.8017249 6.05626854,84.923133 L6.05626854,84.923133 Z" id="Path" fill="#FFFFFF" fill-rule="nonzero"></path>
                                <path d="M18.3368938,49.140255 L16.6458247,73.442623 L53.2890509,37.4863388 C52.6197406,34.7283314 50.1539633,32.7860168 47.3193732,32.7839709 L34.9674378,32.7839709 L18.3368938,49.140255 Z" id="Path" fill="#E6E6E6" fill-rule="nonzero" opacity="0.45" style="mix-blend-mode: screen;"></path>
                                <rect id="Rectangle" fill="#09062D" fill-rule="nonzero" x="114.320346" y="107.139526" width="64.6375507" height="21.1198543" rx="10.5599271"></rect>
                                <rect id="Rectangle" fill="#09062D" fill-rule="nonzero" x="211.551725" y="103.04918" width="15.4793945" height="18.4167577"></rect>
                                <rect id="Rectangle" fill="#09062D" fill-rule="nonzero" x="161.028489" y="103.04918" width="45.9033575" height="18.4167577"></rect>
                                <line x1="192.654537" y1="30.2185792" x2="189.832693" y2="23.9759563" id="Path" stroke="#343741" stroke-width="2.65" stroke-linecap="round"></line>
                                <path d="M167.792766,28.4947177 C167.792766,28.4947177 173.395705,24.6848816 177.292295,24.3482696 C181.188885,24.0116576 184.963229,23.9759563 184.963229,23.9759563 C184.963229,23.9759563 187.58133,23.5781421 190.408268,29.6167577 C192.91431,34.9515483 167.792766,28.4947177 167.792766,28.4947177 Z" id="Path" fill="#343741" fill-rule="nonzero"></path>
                                <path d="M226.256895,34.5996357 L228.049836,26.9493625 C228.28703,25.8890709 228.029078,24.7783298 227.34901,23.9316104 C226.668943,23.084891 225.640789,22.5943642 224.555639,22.5988758 L224.285679,22.5988758 C223.213594,22.6120316 222.244519,23.2410598 221.794918,24.2156648 L217.169946,34.1559199 L226.256895,34.5996357 Z" id="Path" fill="#343741" fill-rule="nonzero"></path>
                                <path d="M225.39608,21.9307832 L225.645666,21.9307832 C226.873129,21.9176255 227.891758,20.9769812 228.003994,19.7530055 L228.217924,17.4222222 C228.2785,16.7453336 228.049898,16.0744274 227.58877,15.5757631 C227.127641,15.0770988 226.477141,14.7973451 225.798473,14.8058288 L225.528513,14.8058288 C224.30105,14.8189865 223.282421,15.7596308 223.170185,16.9836066 L222.956254,19.3143898 C222.895259,19.9948749 223.126536,20.6691729 223.59221,21.1685476 C224.057884,21.6679224 224.713894,21.9451231 225.39608,21.9307832 Z" id="Path" fill="#343741" fill-rule="nonzero"></path>
                                <rect id="Rectangle" fill="#343741" fill-rule="nonzero" x="226.343486" y="20.1100182" width="1" height="4.33005464"></rect>
                                <path d="M267.993703,34.5996357 L269.786644,26.9493625 C270.023838,25.8890709 269.765886,24.7783298 269.085818,23.9316104 C268.40575,23.084891 267.377597,22.5943642 266.292447,22.5988758 L266.017393,22.5988758 C264.947158,22.6139841 263.980536,23.242706 263.531726,24.2156648 L258.906753,34.1559199 L267.993703,34.5996357 Z" id="Path" fill="#343741" fill-rule="nonzero"></path>
                                <path d="M267.132888,21.9307832 L267.413035,21.9307832 C268.639474,21.9173812 269.656506,20.976179 269.766269,19.7530055 L269.9802,17.4222222 C270.043967,16.745471 269.81716,16.0735163 269.356449,15.5742528 C268.895739,15.0749892 268.244642,14.7955765 267.565842,14.8058288 L267.295882,14.8058288 C266.068419,14.8189865 265.04979,15.7596308 264.937554,16.9836066 L264.723624,19.3143898 C264.663238,19.9894916 264.8905,20.6587192 265.349364,21.1570325 C265.808228,21.6553459 266.455984,21.9363637 267.132888,21.9307832 L267.132888,21.9307832 Z" id="Path" fill="#343741" fill-rule="nonzero"></path>
                                <rect id="Rectangle" fill="#343741" fill-rule="nonzero" x="268.080294" y="20.1100182" width="1" height="4.33005464"></rect>
                                <path d="M294.831785,7.24735883 L204.196593,5.71730419 C198.827958,5.71730419 193.403294,8.77741348 193.403294,8.77741348 L163.911456,31.4834244 L310.846005,33.3245902 L294.831785,7.24735883 Z" id="Path" fill="#E6E6E6" fill-rule="nonzero" opacity="0.85"></path>
                                <path d="M207.059186,32.0189435 L230.749434,32.3147541 L205.867288,7.4003643 C202.665602,7.40817402 199.598962,8.69294949 197.345726,10.9704918 L190.586543,15.5606557 L207.059186,32.0189435 Z" id="Path" fill="#FFFFFF" fill-rule="nonzero" opacity="0.45" style="mix-blend-mode: screen;"></path>
                                <path d="M227.453887,5.72240437 L204.211874,5.72240437 C199.678586,5.72240437 196.316823,6.0845173 193.418575,8.78251366 L217.149571,8.78251366 C221.611549,8.7723133 227.453887,5.72240437 227.453887,5.72240437 Z" id="Path" fill="#FFD000" fill-rule="nonzero"></path>
                                <polygon id="Path" fill="#E6E6E6" fill-rule="nonzero" opacity="0.85" points="303.006983 9.01202186 320.314973 29.9941712 312.745911 30.4021858 297.567038 7.06375228"></polygon>
                                <path d="M318.043236,28.4945703 L171.592577,28.4945703 L121.033686,39.0367942 C115.140273,40.8418902 111.116483,46.2895116 111.116483,52.4604736 L111.116483,73.4069217 L125.246078,73.4069217 C125.246078,73.1315118 125.246078,72.856102 125.246078,72.5806922 C125.246078,58.9391582 136.290415,47.88051 149.914294,47.88051 C163.538173,47.88051 174.58251,58.9391582 174.58251,72.5806922 C174.58251,72.856102 174.58251,73.1315118 174.58251,73.4069217 L264.978303,73.4069217 C264.978303,73.1315118 264.978303,72.856102 264.978303,72.5806922 C264.980284,60.0693046 274.322912,49.5345034 286.730212,48.0531145 C299.137511,46.5717256 310.692139,54.6114662 313.632194,66.7715847 L317.819118,66.7715847 C320.645115,65.1930383 322.398463,62.2084841 322.403342,58.968306 L322.403342,32.8247723 C322.403342,31.6701579 321.942879,30.5633464 321.12416,29.7502696 C320.30544,28.9371927 319.196317,28.4851979 318.043236,28.4945703 Z" id="Path" fill="#FFD000" fill-rule="nonzero"></path>
                                <path d="M293.471798,5.72240437 L270.224692,5.72240437 C265.696498,5.72240437 262.334734,6.0845173 259.431392,8.78251366 L283.162389,8.78251366 C287.62946,8.7723133 293.471798,5.72240437 293.471798,5.72240437 Z" id="Path" fill="#06748C" fill-rule="nonzero"></path>
                                <path d="M116.719423,45.5905282 C119.383289,45.588322 121.769789,43.9411666 122.719662,41.4491803 C122.919123,40.9344211 122.852906,40.3543534 122.54258,39.8979399 C122.232254,39.4415265 121.717543,39.1671902 121.166119,39.1642987 L120.656761,39.1642987 C117.372699,40.2744623 114.616114,42.5639939 112.919611,45.5905282 L116.719423,45.5905282 Z" id="Path" fill="#FFFFFF" fill-rule="nonzero"></path>
                                <path d="M112.848301,58.7948998 C112.848301,57.0506375 112.074076,55.6327869 111.116483,55.6327869 L111.116483,61.9621129 C112.058796,61.9621129 112.848301,60.5442623 112.848301,58.7948998 Z" id="Path" fill="#FFD400" fill-rule="nonzero"></path>
                                <path d="M178.000303,28.4896175 L177.180236,32.6666667 C177.180236,32.6666667 176.838967,36.5020036 176.838967,40.3883424 L176.803311,59.8251366 C176.803311,65.3129326 176.23283,70.7446266 178.300824,75.824408 L179.57422,78.9508197" id="Path" stroke="#D1AC11" stroke-width="0.51"></path>
                                <path d="M232.746118,28.4896175 L231.920958,32.6666667 C230.900472,35.1185372 230.327704,37.7338804 230.229889,40.3883424 L230.229889,59.8251366 C230.229889,65.3129326 229.659408,70.7446266 231.727402,75.824408 L233.000797,78.9508197" id="Path" stroke="#D1AC11" stroke-width="0.51"></path>
                                <path d="M278.022965,28.4896175 L278.848126,32.6666667 C278.848126,32.6666667 281.333793,36.5020036 281.333793,40.3883424 L281.364355,59.8251366 C281.364355,65.3129326 281.934836,70.7446266 279.866842,75.824408 L278.618914,78.9508197" id="Path" stroke="#D1AC11" stroke-width="0.51"></path>
                                <rect id="Rectangle" fill="#1A1446" fill-rule="nonzero" x="178.942616" y="27.1992714" width="7.92561299" height="5.65100182" rx="2.82550091"></rect>
                                <polygon id="Path" fill="#1A1446" fill-rule="nonzero" points="180.394286 24.3482696 181.250008 28.4947177 176.477322 28.4947177"></polygon>
                                <polygon id="Path" fill="#1A1446" fill-rule="nonzero" points="235.527214 28.4896175 228.447135 28.4896175 233.591653 8.7723133 238.440743 8.7723133"></polygon>
                                <polygon id="Path" fill="#1A1446" fill-rule="nonzero" points="280.483165 28.4896175 275.837819 28.4896175 270.978542 8.7723133 273.387806 8.7723133"></polygon>
                                <path d="M210.721471,6.70673953 C212.974747,4.45469038 216.050067,3.22370537 219.232846,3.29981785 L275.053407,3.29981785 C278.180056,3.3015044 281.18943,4.49186609 283.473098,6.63023679" id="Path" stroke="#1A1446" stroke-width="5.31" stroke-linecap="square"></path>
                                <path d="M322.367687,41.2349727 L322.367687,34.8647897 L316.336886,34.8647897 C315.973348,34.8609293 315.63929,35.0645671 315.475836,35.389731 C315.312382,35.7148949 315.348044,36.1048661 315.567755,36.3948998 L316.764747,38.0269581 C318.083985,39.8120219 319.255508,40.9952641 322.367687,41.2349727 Z" id="Path" fill="#DD4517" fill-rule="nonzero"></path>
                                <polygon id="Path" fill="#FFD000" fill-rule="nonzero" points="296.772439 5.72240437 304.881421 5.72240437 301.947518 12.1588342"></polygon>
                                <path d="M315.364012,28.4947177 L297.027118,5.72240437 L210.573758,5.72240437 C205.35793,5.72240437 198.649683,8.23169399 194.014524,11.5723133 L171.602765,28.4947177 L176.497697,28.4947177 L195.965365,14.4539162 C200.615805,11.3071038 204.339214,8.7723133 211.623035,8.7723133 L284.028298,8.7723133 C288.49461,8.77303365 292.696637,10.8919048 295.356424,14.4845173 L295.356424,14.4845173 L297.042399,17.1162113 C299.333241,20.6917251 298.931692,25.3636857 296.064431,28.4947177 L315.364012,28.4947177 L315.364012,28.4947177 Z" id="Path" fill="#FFD000" fill-rule="nonzero"></path>
                                <polygon id="Path" fill="#FFD000" fill-rule="nonzero" points="171.592577 28.4947177 167.792766 28.4947177 123.738378 39.0367942 169.198594 33.4010929"></polygon>
                                <rect id="Rectangle" fill="#D1AC11" fill-rule="nonzero" x="219.502806" y="34.8342441" width="5.02736505" height="1.15264117" rx="0.576320583"></rect>
                                <rect id="Rectangle" fill="#D1AC11" fill-rule="nonzero" x="269.531965" y="34.8342441" width="5.02736505" height="1.15264117" rx="0.576320583"></rect>
                                <path d="M317.803838,66.7613843 L313.616914,66.7613843 C310.67709,54.6022084 299.123948,46.5626151 286.717459,48.0426068 C274.310969,49.5225985 264.96758,60.0549752 264.963022,72.5653916 C264.963022,72.8408015 264.963022,73.1162113 264.963022,73.3916211 L174.551948,73.3916211 C174.551948,73.1162113 174.551948,72.8408015 174.551948,72.5653916 C174.551948,58.9238581 163.507612,47.8652105 149.883733,47.8652105 C136.259854,47.8652105 125.215517,58.9238581 125.215517,72.5653916 C125.215517,72.8408015 125.215517,73.1162113 125.215517,73.3916211 L117.885853,73.3916211 L117.885853,73.4324226 L111.116481,73.4324226 C111.116481,74.8914653 111.693036,76.2912128 112.722923,77.3233905 C113.752809,78.3555682 115.150209,78.9355191 116.607364,78.9355191 L306.322905,78.9355191 L308.930819,71.5504554 L311.533639,71.4943534 C314.953571,71.4219009 317.952497,69.1887258 319.005923,65.9300546 C318.627808,66.2385501 318.225852,66.5165315 317.803838,66.7613843 Z" id="Path" fill="#09062D" fill-rule="nonzero"></path>
                                <ellipse id="Oval" fill="#1A1446" fill-rule="nonzero" cx="149.899013" cy="72.5806922" rx="19.2995807" ry="19.3245902"></ellipse>
                                <path d="M149.899013,84.4947177 C143.327594,84.4947177 138.000407,79.1606268 138.000407,72.5806922 C138.000407,66.0007576 143.327594,60.6666667 149.899013,60.6666667 C156.470432,60.6666667 161.79762,66.0007576 161.79762,72.5806922 C161.789201,79.157132 156.466942,84.4862881 149.899013,84.4947177 Z" id="Path" fill="#F5F5F5" fill-rule="nonzero"></path>
                                <path d="M149.899013,61.6153005 C154.32836,61.6153005 158.321566,64.2869324 160.016603,68.3844185 C161.711641,72.4819045 160.774703,77.1983149 157.642681,80.3343949 C154.51066,83.470475 149.800354,84.4086273 145.70817,82.7113931 C141.615987,81.0141588 138.947813,77.0157791 138.947813,72.5806922 C138.953429,66.5270045 143.85316,61.620924 149.899013,61.6153005 L149.899013,61.6153005 Z M149.899013,59.7180328 C142.804356,59.7180328 137.053001,65.4768415 137.053001,72.5806922 C137.053001,79.6845428 142.804356,85.4433515 149.899013,85.4433515 C156.99367,85.4433515 162.745026,79.6845428 162.745026,72.5806922 C162.745026,65.4768415 156.99367,59.7180328 149.899013,59.7180328 L149.899013,59.7180328 Z" id="Shape" fill="#BFC0BF" fill-rule="nonzero"></path>
                                <ellipse id="Oval" fill="#1A1446" fill-rule="nonzero" cx="289.631238" cy="72.5806922" rx="19.2995807" ry="19.3245902"></ellipse>
                                <path d="M289.631238,84.4947177 C283.061148,84.4890853 277.739071,79.1525029 277.742818,72.5738977 C277.746569,65.9952926 283.074726,60.6647957 289.644818,60.666671 C296.21491,60.6685474 301.540032,66.0020859 301.540032,72.5806922 C301.531603,79.1611103 296.203144,84.4919097 289.631238,84.4947177 L289.631238,84.4947177 Z" id="Path" fill="#F5F5F5" fill-rule="nonzero"></path>
                                <path d="M289.631238,61.6153005 C294.060585,61.6153005 298.05379,64.2869324 299.748828,68.3844185 C301.443866,72.4819045 300.506927,77.1983149 297.374906,80.3343949 C294.242885,83.470475 289.532578,84.4086273 285.440395,82.7113931 C281.348212,81.0141588 278.680037,77.0157791 278.680037,72.5806922 C278.688454,66.5281679 283.586547,61.6237283 289.631238,61.6153005 L289.631238,61.6153005 Z M289.631238,59.7180328 C282.536581,59.7180328 276.785225,65.4768415 276.785225,72.5806922 C276.785225,79.6845428 282.536581,85.4433515 289.631238,85.4433515 C296.725895,85.4433515 302.477251,79.6845428 302.477251,72.5806922 C302.477251,65.4768415 296.725895,59.7180328 289.631238,59.7180328 L289.631238,59.7180328 Z" id="Shape" fill="#BFC0BF" fill-rule="nonzero"></path>
                                <line x1="265.421444" y1="0.0714025501" x2="265.421444" y2="3.18761384" id="Path" stroke="#1A1446" stroke-width="5.31" stroke-linecap="round"></line>
                                <line x1="231.68156" y1="0.0714025501" x2="231.68156" y2="3.18761384" id="Path" stroke="#1A1446" stroke-width="5.31" stroke-linecap="round"></line>
                            </g>
                        </g>
                    </g>
                </g>
            </g>
        </g>
    </g>
</svg>